# xmcd CD database file
#
# Track frame offsets:
#	150
#	19333
#	45438
#	63699
#	89433
#	134903
#	159446
#	177246
#	193110
#	215395
#	237803
#	259672
#	281279
#	302944
#	329361
#
# Disc length: 4750 seconds
#
# Revision: 0
# Processed by: cddbd v1.5.2PL0 Copyright (c) Steve Scherf et al.
# Submitted via: CDex 1.70beta2
#
DISCID=dc128c0f
DTITLE=AAVV - Arcano compilation
DYEAR=2005
DGENRE=New Age
TTITLE0=Lamb – Gabriel
TTITLE1=Joni Mitchell - Both side now
TTITLE2=David Sylvian – Praise
TTITLE3=Trilok Gurtu - You, remeber this
TTITLE4=Sigur Ros – Svefn
TTITLE5=Ludovico Einaudi - 
TTITLE6=gaetano Veloso - Cucurrucucù Paloma
TTITLE7=Magrone and Digbeu - My little suede shoes
TTITLE8=Dead Can Dance - American dreaming
TTITLE9=John Martyn - Hurt in your heart
TTITLE10=Nitin Sawney - Breathing light
TTITLE11=Arkè String Project - non fermarmi
TTITLE12=Tom Waits - Kentucky avenue
TTITLE13=Keith Jarret - I love your porgy
TTITLE14=David Sylvian - Forbidden colours
EXTD=YEAR: 2005
EXTT0=
EXTT1=
EXTT2=
EXTT3=
EXTT4=
EXTT5=
EXTT6=
EXTT7=
EXTT8=
EXTT9=
EXTT10=
EXTT11=
EXTT12=
EXTT13=
EXTT14=
PLAYORDER=
